<svg width="18" height="10" viewBox="0 0 18 10" fill="none" xmlns="http://www.w3.org/2000/svg">
<path d="M0.352268 0.343312C0.240604 0.451414 0.152011 0.579835 0.091563 0.721218C0.031115 0.862602 0 1.01417 0 1.16724C0 1.32032 0.031115 1.47188 0.091563 1.61327C0.152011 1.75465 0.240604 1.88307 0.352268 1.99117L8.3236 9.72774C8.41235 9.81404 8.51776 9.88251 8.6338 9.92923C8.74984 9.97595 8.87424 10 8.99987 10C9.1255 10 9.2499 9.97595 9.36594 9.92923C9.48199 9.88251 9.5874 9.81404 9.67614 9.72774L17.6475 1.99117C18.1175 1.53499 18.1175 0.7995 17.6475 0.343312C17.1774 -0.112875 16.4196 -0.112875 15.9496 0.343312L8.99508 7.08371L2.04054 0.334004C1.5801 -0.112873 0.812706 -0.112875 0.352268 0.343312Z" fill="currentColor"/>
</svg>
