<svg width="18" height="10" viewBox="0 0 18 10" fill="none" xmlns="http://www.w3.org/2000/svg">
<path d="M17.6477 9.65669C17.7594 9.54859 17.848 9.42017 17.9084 9.27878C17.9689 9.1374 18 8.98583 18 8.83276C18 8.67968 17.9689 8.52812 17.9084 8.38673C17.848 8.24535 17.7594 8.11693 17.6477 8.00883L9.6764 0.272264C9.58765 0.185957 9.48224 0.117485 9.3662 0.0707664C9.25016 0.0240478 9.12576 0 9.00013 0C8.8745 0 8.7501 0.0240478 8.63406 0.0707664C8.51801 0.117485 8.4126 0.185957 8.32386 0.272264L0.352521 8.00883C-0.11751 8.46501 -0.11751 9.2005 0.352521 9.65669C0.822552 10.1129 1.58036 10.1129 2.05039 9.65669L9.00492 2.91629L15.9595 9.666C16.4199 10.1129 17.1873 10.1129 17.6477 9.65669Z" fill="currentColor"/>
</svg>
