<svg width="15" height="15" viewBox="0 0 15 15" fill="none" xmlns="http://www.w3.org/2000/svg">
<g clip-path="url(#clip0_1237_2830)">
<path d="M7.5 0.9375C3.87598 0.9375 0.9375 3.87598 0.9375 7.5C0.9375 11.124 3.87598 14.0625 7.5 14.0625C11.124 14.0625 14.0625 11.124 14.0625 7.5C14.0625 3.87598 11.124 0.9375 7.5 0.9375ZM7.96875 10.6641C7.96875 10.7285 7.91602 10.7812 7.85156 10.7812H7.14844C7.08398 10.7812 7.03125 10.7285 7.03125 10.6641V6.67969C7.03125 6.61523 7.08398 6.5625 7.14844 6.5625H7.85156C7.91602 6.5625 7.96875 6.61523 7.96875 6.67969V10.6641ZM7.5 5.625C7.316 5.62124 7.14081 5.54551 7.01202 5.41406C6.88322 5.28261 6.81108 5.10591 6.81108 4.92188C6.81108 4.73784 6.88322 4.56114 7.01202 4.42969C7.14081 4.29824 7.316 4.22251 7.5 4.21875C7.684 4.22251 7.85919 4.29824 7.98798 4.42969C8.11678 4.56114 8.18892 4.73784 8.18892 4.92188C8.18892 5.10591 8.11678 5.28261 7.98798 5.41406C7.85919 5.54551 7.684 5.62124 7.5 5.625Z" fill="currentColor"/>
</g>
<defs>
<clipPath id="clip0_1237_2830">
<rect width="15" height="15" fill="white"/>
</clipPath>
</defs>
</svg>
